<?xml version="1.0" standalone="no"?><!DOCTYPE svg PUBLIC "-//W3C//DTD SVG 1.1//EN" "http://www.w3.org/Graphics/SVG/1.1/DTD/svg11.dtd"><svg t="1607655380378" class="icon" viewBox="0 0 1024 1024" version="1.1" xmlns="http://www.w3.org/2000/svg" p-id="35772" width="128" height="128" xmlns:xlink="http://www.w3.org/1999/xlink"><defs><style type="text/css"></style></defs><path d="M512 23.04c-269.63968 0-488.97536 219.33568-488.97536 488.97536 0 138.24 57.93792 263.02976 150.4768 352.09216 0.29696 0.23552 0.41984 0.67584 0.69632 0.91648 2.84672 2.66752 5.90848 5.01248 8.7552 7.68 7.83872 7.15776 15.69792 14.20288 24.0128 20.84864 4.43904 3.53792 9.03168 6.76352 13.568 10.10688 7.81824 5.85216 15.63648 11.6992 23.8336 17.03424 5.5296 3.70176 11.28448 6.95808 16.91136 10.34752 7.5776 4.53632 15.05792 9.14944 22.90176 13.29152 6.54336 3.50208 13.312 6.52288 20.03456 9.63072 7.30112 3.50208 14.54592 7.08608 22.08256 10.18368 7.424 3.02592 15.08352 5.57568 22.66112 8.27904 7.16288 2.54464 14.22848 5.32992 21.50912 7.48032 8.23808 2.50368 16.7168 4.3776 25.06752 6.44608 6.92736 1.75616 13.76768 3.66592 20.8128 5.0944 9.67168 1.90976 19.43552 3.10272 29.22496 4.4544 6.03136 0.79872 11.93984 1.99168 18.00704 2.63168a483.072 483.072 0 0 0 96.79872 0c6.12352-0.59904 12.01664-1.75104 18.02752-2.59072 9.78944-1.35168 19.5328-2.5856 29.24544-4.49536 7.00416-1.3568 13.8496-3.33824 20.77696-5.01248 8.35584-2.06848 16.8704-3.97824 25.06752-6.52288 7.3216-2.1504 14.36672-4.85376 21.52448-7.43936 7.59808-2.66752 15.24224-5.25312 22.64576-8.32 7.56224-3.0976 14.76096-6.68672 22.12352-10.10688 6.68672-3.18464 13.45024-6.21056 20.01408-9.70752 7.83872-4.10112 15.31904-8.7552 22.88128-13.25056 5.65248-3.42528 11.45856-6.68672 16.95232-10.30656 8.12032-5.41696 16-11.22304 23.79776-17.03424 4.53632-3.42016 9.14944-6.6048 13.60384-10.18368 8.27904-6.6048 16.11776-13.69088 24.03328-20.84864 2.8672-2.63168 5.96992-4.93568 8.71424-7.63904 0.2816-0.2816 0.39936-0.64 0.68096-0.95744 92.55424-89.0624 150.49728-213.85216 150.49728-352.09216C1000.97536 242.37568 781.63456 23.04 512 23.04zM580.44416 493.312c-0.15872 0.11776-0.39936 0.11776-0.59904 0.24064a146.06848 146.06848 0 0 1-29.16352 12.35456c-1.82784 0.51712-3.584 1.21344-5.41696 1.66912-3.57888 0.93696-7.15776 1.55136-10.7776 2.1504a137.51296 137.51296 0 0 1-24.43264 2.048 143.14496 143.14496 0 0 1-20.59264-2.048c-3.584-0.59904-7.16288-1.21344-10.74688-2.1504-1.82784-0.45568-3.57888-1.152-5.43232-1.66912A143.93856 143.93856 0 0 1 444.11392 493.55264L443.4944 493.312a139.27936 139.27936 0 0 1-71.22944-121.03168c0.1024-77.11744 62.61248-139.61216 139.73504-139.6736 77.12256 0.06144 139.63264 62.55616 139.7504 139.6736 0 52.09088-28.96384 96.9984-71.30624 121.03168zM423.04 561.75616A207.79008 207.79008 0 0 0 512 581.85216c31.75424 0 61.92128-7.3216 88.97536-20.096 112.53248 38.12352 188.86144 143.01184 190.37184 261.8368-1.5104 1.26976-2.8672 2.66752-4.33664 3.9424a419.57376 419.57376 0 0 1-31.40096 24.86784 467.82976 467.82976 0 0 1-33.8176 21.88288 395.21792 395.21792 0 0 1-35.73248 18.54464 613.55008 613.55008 0 0 1-18.18624 7.91552c-6.36928 2.5088-12.7744 4.85376-19.22048 7.04512-5.92896 2.06848-11.85792 4.14208-17.82784 5.888-7.04 2.10944-14.24384 3.81952-21.48352 5.57056-5.68832 1.3568-11.30496 2.8672-17.03424 3.9424-8.27392 1.62816-16.71168 2.74432-25.14432 3.86048-4.85376 0.63488-9.63072 1.51552-14.52544 1.99168a401.41824 401.41824 0 0 1-81.37728 0c-4.85376-0.47616-9.61024-1.31584-14.464-1.99168-8.47872-1.0752-16.91136-2.23232-25.23136-3.81952-5.68832-1.11616-11.32032-2.62656-16.98816-3.9424a398.848 398.848 0 0 1-21.50912-5.5296c-5.98528-1.82784-11.85792-3.90144-17.80736-5.92896a409.728 409.728 0 0 1-19.2-7.04512c-6.14912-2.46272-12.21632-5.21216-18.24256-7.95648a386.2528 386.2528 0 0 1-35.69152-18.54464 384.85504 384.85504 0 0 1-45.56288-30.72 450.64192 450.64192 0 0 1-19.59936-16.03584l-4.31616-3.9424c1.536-118.81984 77.83936-223.74912 190.39232-261.83168z m430.30528 192.51712A351.10912 351.10912 0 0 0 666.3168 513.56672a208.39936 208.39936 0 0 0 55.23456-141.2864C721.38752 256.62464 627.64032 162.91328 512 162.81088c-115.6352 0.1024-209.38752 93.79328-209.57184 209.42848 0 54.49728 21.02784 103.9616 55.17312 141.2864a351.02208 351.02208 0 0 0-187.02336 240.74752 416.6656 416.6656 0 0 1-77.71648-242.25792c0-231.1168 188.02176-419.13856 419.13856-419.13856s419.13856 188.02176 419.13856 419.13856c0 90.2912-29.00992 173.81376-77.75744 242.25792h-0.03584z" p-id="35773"></path></svg>