<?xml version="1.0" standalone="no"?><!DOCTYPE svg PUBLIC "-//W3C//DTD SVG 1.1//EN" "http://www.w3.org/Graphics/SVG/1.1/DTD/svg11.dtd"><svg t="1608275264028" class="icon" viewBox="0 0 1024 1024" version="1.1" xmlns="http://www.w3.org/2000/svg" p-id="754" xmlns:xlink="http://www.w3.org/1999/xlink" width="128" height="128"><defs><style type="text/css"></style></defs><path d="M42.677542 341.34033299L640.004125 341.340333a42.666542 42.666542 0 0 1 0 85.333084l-597.326583 0a42.666542 42.666542 0 0 1 0-85.33308401z m0 255.99725L640.004125 597.337583a42.666542 42.666542 0 0 1 0 85.333084l-597.326583 0a42.666542 42.666542 0 0 1 0-85.33308401z m0 341.33033401L981.33345799 938.667917a42.666542 42.666542 0 0 1 1e-8 85.332083l-938.655916 0a42.666542 42.666542 0 0 1 0-85.332083z m959.989687-273.775059a21.251772 21.251772 0 0 1-15.667832-6.889926l-163.293245-108.862831 0-0.189998a42.655542 42.655542 0 0 1 0-73.889206l0-0.189998L987.000397 366.007068A21.289771 21.289771 0 0 1 1023.940001 379.265926L1024 379.265926 1024 643.560087a21.332771 21.332771 0 0 1-21.332771 21.332771z m-21.333771-579.549775l-938.655916-1e-8a42.666542 42.666542 0 0 1 0-85.33208299L981.333458 0.011a42.666542 42.666542 0 0 1 0 85.332083z" p-id="755"></path></svg>