<?xml version="1.0" standalone="no"?><!DOCTYPE svg PUBLIC "-//W3C//DTD SVG 1.1//EN" "http://www.w3.org/Graphics/SVG/1.1/DTD/svg11.dtd"><svg t="1608275269920" class="icon" viewBox="0 0 1024 1024" version="1.1" xmlns="http://www.w3.org/2000/svg" p-id="894" xmlns:xlink="http://www.w3.org/1999/xlink" width="128" height="128"><defs><style type="text/css"></style></defs><path d="M981.322458 682.659667H383.995875a42.666542 42.666542 0 0 1 0-85.333084h597.326583a42.666542 42.666542 0 0 1 0 85.333084z m0-255.99725H383.995875a42.666542 42.666542 0 0 1 0-85.333084h597.326583a42.666542 42.666542 0 0 1 0 85.333084z m0-341.330334H42.666542a42.666542 42.666542 0 0 1 0-85.332083h938.655916a42.666542 42.666542 0 0 1 0 85.332083z m-959.989687 273.775059a21.251772 21.251772 0 0 1 15.667832 6.889926l163.293245 108.862831v0.189998a42.655542 42.655542 0 0 1 0 73.889206v0.189998L36.999603 657.992932A21.289771 21.289771 0 0 1 0.059999 644.734074H0V380.439913a21.332771 21.332771 0 0 1 21.332771-21.332771z m21.333771 579.549775h938.655916a42.666542 42.666542 0 0 1 0 85.332083H42.666542a42.666542 42.666542 0 0 1 0-85.332083z" p-id="895"></path></svg>