<?xml version="1.0" standalone="no"?><!DOCTYPE svg PUBLIC "-//W3C//DTD SVG 1.1//EN" "http://www.w3.org/Graphics/SVG/1.1/DTD/svg11.dtd"><svg t="1607655391114" class="icon" viewBox="0 0 1024 1024" version="1.1" xmlns="http://www.w3.org/2000/svg" p-id="35958" xmlns:xlink="http://www.w3.org/1999/xlink" width="128" height="128"><defs><style type="text/css"></style></defs><path d="M981.125517 313.202305c-25.672706-60.694337-62.414515-115.195625-109.206214-161.987325-46.792723-46.791699-101.291964-83.533508-161.987325-109.206214C647.071302 15.421224 580.322062 1.940189 511.537466 1.940189S376.00363 15.421224 313.14193 42.008766c-60.694337 25.671683-115.195625 62.414515-161.987325 109.206214-46.791699 46.792723-83.533508 101.292987-109.206214 161.987325C15.360849 376.064005 1.879813 442.813245 1.879813 511.597841c0 68.783573 13.481036 135.533836 40.069601 198.394513 25.671683 60.694337 62.414515 115.195625 109.206214 161.987325 46.792723 46.792723 101.292987 83.534532 161.987325 109.206214 62.860676 26.588565 129.61094 40.069601 198.394513 40.069601s135.533836-13.481036 198.395536-40.069601c60.694337-25.671683 115.194602-62.413492 161.987325-109.206214 46.791699-46.791699 83.533508-101.291964 109.206214-161.987325 26.587542-62.8617 40.068578-129.61094 40.068578-198.394513C1021.195118 442.813245 1007.714082 376.064005 981.125517 313.202305zM901.014968 676.109662c-21.286816 50.327222-51.769061 95.532797-90.600461 134.366244-38.8314 38.8314-84.039022 69.313645-134.366244 90.600461-52.082192 22.028713-107.430778 33.1981-164.511821 33.1981-57.08002 0-112.429629-11.169387-164.511821-33.1981-50.327222-21.286816-95.53382-51.769061-134.366244-90.600461-38.832424-38.832424-69.314669-84.040045-90.601484-134.367267-22.028713-52.082192-33.1981-107.430778-33.1981-164.510798s11.169387-112.429629 33.1981-164.511821c21.285792-50.327222 51.769061-95.53382 90.601484-134.366244 38.8314-38.832424 84.039022-69.314669 134.366244-90.601484 52.082192-22.028713 107.431801-33.1981 164.511821-33.1981 57.08002 0 112.429629 11.169387 164.511821 33.1981 50.327222 21.285792 95.53382 51.769061 134.366244 90.600461 38.8314 38.832424 69.313645 84.039022 90.600461 134.366244 22.028713 52.082192 33.1981 107.430778 33.1981 164.511821C934.214091 568.67786 923.044704 624.027469 901.014968 676.109662z" p-id="35959"></path><path d="M702.060707 380.013967l-15.711843 0 0-26.219151c0-96.391351-78.421071-174.812421-174.812421-174.812421S336.725044 257.402441 336.725044 353.793792l0 26.219151-15.711843 0c-49.993624 0-90.666976 40.673351-90.666976 90.666976l0 248.593821c0 49.993624 40.673351 90.667999 90.666976 90.667999L702.060707 809.94174c49.993624 0 90.666976-40.673351 90.666976-90.667999L792.727683 470.680942C792.727683 420.686295 752.055354 380.013967 702.060707 380.013967zM423.706071 353.793792c0-48.430012 39.400359-87.831394 87.831394-87.831394s87.831394 39.400359 87.831394 87.831394l0 26.219151L423.706071 380.012943 423.706071 353.793792zM705.746656 719.274764c0 2.032286-1.65264 3.686972-3.685949 3.686972L321.014224 722.961736c-2.032286 0-3.685949-1.653663-3.685949-3.686972L317.328275 470.680942c0-2.032286 1.653663-3.685949 3.685949-3.685949L702.060707 466.994993c2.032286 0 3.685949 1.653663 3.685949 3.685949L705.746656 719.274764z" p-id="35960"></path><path d="M512 489.103524c-36.169781 0-65.491597 29.321816-65.491597 65.491597 0 24.888853 13.884218 46.533826 34.329876 57.615209l0 43.582611c0 16.954137 13.745049 30.699186 30.699186 30.699186s30.699186-13.745049 30.699186-30.699186l0-43.10882c20.946055-10.92584 35.254945-32.829709 35.254945-58.089C577.491597 518.42534 548.169781 489.103524 512 489.103524z" p-id="35961"></path></svg>